<svg width="27" height="25" viewBox="0 0 27 25" fill="none" xmlns="http://www.w3.org/2000/svg">
<g filter="url(#filter0_d_165_7914)">
<path d="M13.3999 0.52002C15.5562 0.52002 17.3374 2.30127 17.3374 4.45752C17.3374 6.23877 14.7437 9.42627 13.7749 10.6138C13.5562 10.8325 13.2124 10.8325 12.9937 10.6138C12.0249 9.42627 9.4624 6.23877 9.4624 4.45752C9.4624 2.30127 11.2124 0.52002 13.3999 0.52002ZM13.3999 5.77002C14.1187 5.77002 14.7124 5.20752 14.7124 4.45752C14.7124 3.73877 14.1187 3.14502 13.3999 3.14502C12.6499 3.14502 12.0874 3.73877 12.0874 4.45752C12.0874 5.20752 12.6499 5.77002 13.3999 5.77002ZM5.0249 7.27002L8.7124 5.80127C8.86865 6.27002 9.11865 6.73877 9.3999 7.23877V14.52L5.05615 16.4888C4.74365 16.645 4.3999 16.395 4.3999 16.02V8.20752C4.3999 7.80127 4.6499 7.42627 5.0249 7.27002ZM13.3999 11.77C13.8374 11.77 14.2437 11.5825 14.5249 11.2388C15.1499 10.52 15.8062 9.70752 16.3999 8.83252V16.52L10.3999 14.52V8.83252C10.9624 9.70752 11.6187 10.52 12.2437 11.2388C12.5249 11.5825 12.9312 11.77 13.3999 11.77ZM21.7124 5.58252C22.0249 5.42627 22.3999 5.67627 22.3999 6.05127V13.8638C22.3999 14.27 22.1187 14.645 21.7437 14.8013L17.3999 16.52V7.52002L21.7124 5.58252Z" fill="black"/>
</g>
<defs>
<filter id="filter0_d_165_7914" x="0.399902" y="0.52002" width="26" height="24.125" filterUnits="userSpaceOnUse" color-interpolation-filters="sRGB">
<feFlood flood-opacity="0" result="BackgroundImageFix"/>
<feColorMatrix in="SourceAlpha" type="matrix" values="0 0 0 0 0 0 0 0 0 0 0 0 0 0 0 0 0 0 127 0" result="hardAlpha"/>
<feOffset dy="4"/>
<feGaussianBlur stdDeviation="2"/>
<feComposite in2="hardAlpha" operator="out"/>
<feColorMatrix type="matrix" values="0 0 0 0 0 0 0 0 0 0 0 0 0 0 0 0 0 0 0.25 0"/>
<feBlend mode="normal" in2="BackgroundImageFix" result="effect1_dropShadow_165_7914"/>
<feBlend mode="normal" in="SourceGraphic" in2="effect1_dropShadow_165_7914" result="shape"/>
</filter>
</defs>
</svg>
